<?xml version="1.0" encoding="UTF-8"?>
<svg xmlns="http://www.w3.org/2000/svg" width="297mm" height="115mm" viewBox="0 0 841.89 325.984">
  <defs>
    <style>
      .uuid-f3b50350-6890-4029-9adf-90afacdc1348 {
        stroke-dasharray: 0 0 0 0 1.668 1.668 1.668 1.668;
      }

      .uuid-f3b50350-6890-4029-9adf-90afacdc1348, .uuid-3d8dc7e8-ac85-4ae4-92b5-21c9e003ae79, .uuid-a02c4246-f3c4-41f5-8aac-45537f3aad8c, .uuid-ad064083-8e4c-4468-baab-11460d3aacb9, .uuid-6d3ad941-286c-48c9-96ce-b387afc763ce, .uuid-d8881e4d-cc0f-4b1d-a0c5-3e495184d5bb, .uuid-57253e49-6ebf-4941-9c1e-f216c0f20714, .uuid-572b857e-5a9c-4a3c-a322-17a1da6c428d, .uuid-da71d76b-e60f-4e4a-bf60-3e1c801ac931, .uuid-8c0f39f7-0045-4926-b252-d16d172e1a3a, .uuid-c4e46b1a-66fa-4959-974a-29aa7b2a5674, .uuid-78bb45b0-1fc3-405b-9430-5f9229c006c4, .uuid-7c71f225-2525-474f-9a55-264bbab43e59, .uuid-e83b6bb9-3e8a-422b-bdd2-5c8459ac1212, .uuid-37088ae0-2887-45cb-b665-21a3270d089f, .uuid-eaec79bb-7e98-4539-bcf1-3e88e0a75bf1, .uuid-ffd9aac8-a0cb-492a-9242-8c6b2e766685, .uuid-5386dd52-7b2b-44db-b67f-a4591dd4064b, .uuid-0dcb8e36-96d6-4e2d-a51e-42fd92d25df4, .uuid-dd79e79b-70bb-47a4-af8d-ac4eda51e091 {
        fill: none;
      }

      .uuid-f3b50350-6890-4029-9adf-90afacdc1348, .uuid-3d8dc7e8-ac85-4ae4-92b5-21c9e003ae79, .uuid-a02c4246-f3c4-41f5-8aac-45537f3aad8c, .uuid-ad064083-8e4c-4468-baab-11460d3aacb9, .uuid-6d3ad941-286c-48c9-96ce-b387afc763ce, .uuid-d8881e4d-cc0f-4b1d-a0c5-3e495184d5bb, .uuid-57253e49-6ebf-4941-9c1e-f216c0f20714, .uuid-572b857e-5a9c-4a3c-a322-17a1da6c428d, .uuid-da71d76b-e60f-4e4a-bf60-3e1c801ac931, .uuid-8c0f39f7-0045-4926-b252-d16d172e1a3a, .uuid-c4e46b1a-66fa-4959-974a-29aa7b2a5674, .uuid-78bb45b0-1fc3-405b-9430-5f9229c006c4, .uuid-7c71f225-2525-474f-9a55-264bbab43e59, .uuid-e83b6bb9-3e8a-422b-bdd2-5c8459ac1212, .uuid-eaec79bb-7e98-4539-bcf1-3e88e0a75bf1, .uuid-ffd9aac8-a0cb-492a-9242-8c6b2e766685, .uuid-5386dd52-7b2b-44db-b67f-a4591dd4064b, .uuid-0dcb8e36-96d6-4e2d-a51e-42fd92d25df4, .uuid-dd79e79b-70bb-47a4-af8d-ac4eda51e091 {
        stroke-linejoin: round;
      }

      .uuid-f3b50350-6890-4029-9adf-90afacdc1348, .uuid-a02c4246-f3c4-41f5-8aac-45537f3aad8c, .uuid-ad064083-8e4c-4468-baab-11460d3aacb9, .uuid-6d3ad941-286c-48c9-96ce-b387afc763ce, .uuid-d8881e4d-cc0f-4b1d-a0c5-3e495184d5bb, .uuid-57253e49-6ebf-4941-9c1e-f216c0f20714, .uuid-572b857e-5a9c-4a3c-a322-17a1da6c428d, .uuid-da71d76b-e60f-4e4a-bf60-3e1c801ac931, .uuid-8c0f39f7-0045-4926-b252-d16d172e1a3a, .uuid-c4e46b1a-66fa-4959-974a-29aa7b2a5674, .uuid-78bb45b0-1fc3-405b-9430-5f9229c006c4, .uuid-7c71f225-2525-474f-9a55-264bbab43e59, .uuid-e83b6bb9-3e8a-422b-bdd2-5c8459ac1212, .uuid-37088ae0-2887-45cb-b665-21a3270d089f, .uuid-eaec79bb-7e98-4539-bcf1-3e88e0a75bf1, .uuid-ffd9aac8-a0cb-492a-9242-8c6b2e766685, .uuid-5386dd52-7b2b-44db-b67f-a4591dd4064b, .uuid-0dcb8e36-96d6-4e2d-a51e-42fd92d25df4, .uuid-dd79e79b-70bb-47a4-af8d-ac4eda51e091 {
        stroke: #161616;
      }

      .uuid-3d8dc7e8-ac85-4ae4-92b5-21c9e003ae79 {
        stroke: #fff;
        stroke-width: 8px;
      }

      .uuid-ad064083-8e4c-4468-baab-11460d3aacb9 {
        stroke-dasharray: 0 0 0 0 0 0 1.62 1.62 1.62 1.62 1.62 1.62;
      }

      .uuid-6d3ad941-286c-48c9-96ce-b387afc763ce {
        stroke-dasharray: 0 0 0 0 0 0 2.848 2.848 2.848 2.848 2.848 2.848;
      }

      .uuid-3cdc59fc-3fc1-41cc-960f-8f9063d5d5d4 {
        fill: #fff;
      }

      .uuid-c2625ffa-bbbf-4277-baac-d0f6affd2736 {
        fill: #d9e8f7;
      }

      .uuid-ed986677-c8e6-413e-862b-355cf322c66e {
        fill: #161616;
      }

      .uuid-142de210-e6b2-4b65-bbb4-f78ec041174c {
        fill: #5c5c5c;
      }

      .uuid-d8881e4d-cc0f-4b1d-a0c5-3e495184d5bb {
        stroke-dasharray: 0 0 0 0 0 0 2.962 2.962 2.962 2.962 2.962 2.962;
      }

      .uuid-57253e49-6ebf-4941-9c1e-f216c0f20714 {
        stroke-dasharray: 0 0 0 0 2.447 2.447 2.447 2.447;
      }

      .uuid-572b857e-5a9c-4a3c-a322-17a1da6c428d {
        stroke-dasharray: 0 0 0 0 2.944 2.944 2.944 2.944;
      }

      .uuid-da71d76b-e60f-4e4a-bf60-3e1c801ac931 {
        stroke-dasharray: 0 0 0 0 2.431 2.431 2.431 2.431;
      }

      .uuid-8c0f39f7-0045-4926-b252-d16d172e1a3a {
        stroke-dasharray: 0 0 0 0 2.848 2.848 2.848 2.848;
      }

      .uuid-c4e46b1a-66fa-4959-974a-29aa7b2a5674 {
        stroke-dasharray: 0 0 0 0 0 0 2.954 2.954 2.954 2.954 2.954 2.954;
      }

      .uuid-78bb45b0-1fc3-405b-9430-5f9229c006c4 {
        stroke-dasharray: 0 0 0 0 2.954 2.954 2.954 2.954;
      }

      .uuid-7c71f225-2525-474f-9a55-264bbab43e59 {
        stroke-dasharray: 0 0 0 0 2.962 2.962 2.962 2.962;
      }

      .uuid-e83b6bb9-3e8a-422b-bdd2-5c8459ac1212 {
        stroke-dasharray: 0 0 0 0 0 0 2.944 2.944 2.944 2.944 2.944 2.944;
      }

      .uuid-37088ae0-2887-45cb-b665-21a3270d089f {
        stroke-miterlimit: 10;
      }

      .uuid-eaec79bb-7e98-4539-bcf1-3e88e0a75bf1 {
        stroke-dasharray: 0 0 0 0 3.012 3.012 3.012 3.012;
      }

      .uuid-ffd9aac8-a0cb-492a-9242-8c6b2e766685 {
        stroke-dasharray: 0 0 0 0 0 0 3.012 3.012 3.012 3.012 3.012 3.012;
      }

      .uuid-5386dd52-7b2b-44db-b67f-a4591dd4064b {
        stroke-dasharray: 0 0 0 0 2.953 2.953 2.953 2.953;
      }

      .uuid-0dcb8e36-96d6-4e2d-a51e-42fd92d25df4 {
        stroke-dasharray: 0 0 0 0 1.62 1.62 1.62 1.62;
      }

      .uuid-dd79e79b-70bb-47a4-af8d-ac4eda51e091 {
        stroke-dasharray: 0 0 0 0 0 0 2.953 2.953 2.953 2.953 2.953 2.953;
      }
    </style>
  </defs>
  <g id="uuid-e29c4c5d-3ecd-4e68-9e28-0e810929a826" data-name="Layer 1">
    <polyline class="uuid-37088ae0-2887-45cb-b665-21a3270d089f" points="279.201 224.482 279.201 203.939 350.118 203.939 350.118 181.779"/>
    <polyline class="uuid-37088ae0-2887-45cb-b665-21a3270d089f" points="208.477 224.482 208.477 203.939 350.115 203.939 350.115 181.779"/>
    <line class="uuid-37088ae0-2887-45cb-b665-21a3270d089f" x1="350.118" y1="224.584" x2="350.118" y2="181.778"/>
    <polyline class="uuid-37088ae0-2887-45cb-b665-21a3270d089f" points="633.503 224.482 633.503 203.939 704.42 203.939 704.42 181.779"/>
    <polyline class="uuid-37088ae0-2887-45cb-b665-21a3270d089f" points="562.779 224.482 562.779 203.939 704.417 203.939 704.417 181.779"/>
    <line class="uuid-37088ae0-2887-45cb-b665-21a3270d089f" x1="704.42" y1="224.584" x2="704.42" y2="181.778"/>
    <polyline class="uuid-37088ae0-2887-45cb-b665-21a3270d089f" points="492.01 224.483 492.01 203.939 704.417 203.939 704.417 181.78"/>
    <line class="uuid-37088ae0-2887-45cb-b665-21a3270d089f" x1="775.332" y1="224.584" x2="775.332" y2="181.778"/>
    <g>
      <line class="uuid-a02c4246-f3c4-41f5-8aac-45537f3aad8c" x1="66.673" y1="182.065" x2="66.673" y2="183.565"/>
      <line class="uuid-8c0f39f7-0045-4926-b252-d16d172e1a3a" x1="66.673" y1="186.412" x2="66.673" y2="196.379"/>
      <line class="uuid-6d3ad941-286c-48c9-96ce-b387afc763ce" x1="66.673" y1="197.803" x2="66.673" y2="298.893"/>
      <polyline class="uuid-a02c4246-f3c4-41f5-8aac-45537f3aad8c" points="66.673 300.316 66.673 301.816 68.173 301.816"/>
      <line class="uuid-78bb45b0-1fc3-405b-9430-5f9229c006c4" x1="71.126" y1="301.816" x2="81.465" y2="301.816"/>
      <line class="uuid-c4e46b1a-66fa-4959-974a-29aa7b2a5674" x1="82.942" y1="301.816" x2="489.106" y2="301.816"/>
      <polyline class="uuid-a02c4246-f3c4-41f5-8aac-45537f3aad8c" points="490.583 301.816 492.083 301.816 492.083 300.316"/>
      <line class="uuid-da71d76b-e60f-4e4a-bf60-3e1c801ac931" x1="492.083" y1="297.885" x2="492.083" y2="289.375"/>
      <line class="uuid-a02c4246-f3c4-41f5-8aac-45537f3aad8c" x1="492.083" y1="288.159" x2="492.083" y2="286.659"/>
      <polygon class="uuid-ed986677-c8e6-413e-862b-355cf322c66e" points="495.822 287.753 492.083 281.277 488.343 287.753 495.822 287.753"/>
    </g>
    <g>
      <line class="uuid-a02c4246-f3c4-41f5-8aac-45537f3aad8c" x1="704.42" y1="280.994" x2="704.42" y2="282.494"/>
      <line class="uuid-0dcb8e36-96d6-4e2d-a51e-42fd92d25df4" x1="704.42" y1="284.114" x2="704.42" y2="289.785"/>
      <line class="uuid-ad064083-8e4c-4468-baab-11460d3aacb9" x1="704.42" y1="290.595" x2="704.42" y2="299.506"/>
      <polyline class="uuid-a02c4246-f3c4-41f5-8aac-45537f3aad8c" points="704.42 300.317 704.42 301.817 705.92 301.817"/>
      <line class="uuid-7c71f225-2525-474f-9a55-264bbab43e59" x1="708.883" y1="301.817" x2="719.25" y2="301.817"/>
      <line class="uuid-d8881e4d-cc0f-4b1d-a0c5-3e495184d5bb" x1="720.731" y1="301.817" x2="772.566" y2="301.817"/>
      <polyline class="uuid-a02c4246-f3c4-41f5-8aac-45537f3aad8c" points="774.047 301.817 775.547 301.817 775.547 300.317"/>
      <line class="uuid-da71d76b-e60f-4e4a-bf60-3e1c801ac931" x1="775.547" y1="297.885" x2="775.547" y2="289.375"/>
      <line class="uuid-a02c4246-f3c4-41f5-8aac-45537f3aad8c" x1="775.547" y1="288.159" x2="775.547" y2="286.659"/>
      <polygon class="uuid-ed986677-c8e6-413e-862b-355cf322c66e" points="779.287 287.753 775.547 281.277 771.808 287.753 779.287 287.753"/>
    </g>
    <line class="uuid-3d8dc7e8-ac85-4ae4-92b5-21c9e003ae79" x1="598.263" y1="220.371" x2="598.263" y2="188.877"/>
    <g>
      <line class="uuid-a02c4246-f3c4-41f5-8aac-45537f3aad8c" x1="633.742" y1="286.584" x2="633.742" y2="288.084"/>
      <line class="uuid-57253e49-6ebf-4941-9c1e-f216c0f20714" x1="633.742" y1="290.53" x2="633.742" y2="299.093"/>
      <polyline class="uuid-a02c4246-f3c4-41f5-8aac-45537f3aad8c" points="633.742 300.316 633.742 301.816 632.242 301.816"/>
      <line class="uuid-5386dd52-7b2b-44db-b67f-a4591dd4064b" x1="629.29" y1="301.816" x2="618.955" y2="301.816"/>
      <line class="uuid-dd79e79b-70bb-47a4-af8d-ac4eda51e091" x1="617.479" y1="301.816" x2="601.24" y2="301.816"/>
      <polyline class="uuid-a02c4246-f3c4-41f5-8aac-45537f3aad8c" points="599.763 301.816 598.263 301.816 598.263 300.316"/>
      <line class="uuid-eaec79bb-7e98-4539-bcf1-3e88e0a75bf1" x1="598.263" y1="297.305" x2="598.263" y2="286.763"/>
      <line class="uuid-ffd9aac8-a0cb-492a-9242-8c6b2e766685" x1="598.263" y1="285.257" x2="598.263" y2="196.409"/>
      <polyline class="uuid-a02c4246-f3c4-41f5-8aac-45537f3aad8c" points="598.263 194.903 598.263 193.403 596.763 193.403"/>
      <line class="uuid-572b857e-5a9c-4a3c-a322-17a1da6c428d" x1="593.819" y1="193.403" x2="583.514" y2="193.403"/>
      <line class="uuid-e83b6bb9-3e8a-422b-bdd2-5c8459ac1212" x1="582.042" y1="193.403" x2="565.848" y2="193.403"/>
      <polyline class="uuid-a02c4246-f3c4-41f5-8aac-45537f3aad8c" points="564.376 193.403 562.876 193.403 562.876 191.903"/>
      <line class="uuid-f3b50350-6890-4029-9adf-90afacdc1348" x1="562.876" y1="190.235" x2="562.876" y2="184.399"/>
      <line class="uuid-a02c4246-f3c4-41f5-8aac-45537f3aad8c" x1="562.876" y1="183.565" x2="562.876" y2="182.065"/>
      <polygon class="uuid-ed986677-c8e6-413e-862b-355cf322c66e" points="630.002 287.678 633.742 281.201 637.482 287.678 630.002 287.678"/>
    </g>
    <g>
      <rect class="uuid-c2625ffa-bbbf-4277-baac-d0f6affd2736" x="321.789" y="224.584" width="56.693" height="56.693"/>
      <g>
        <path class="uuid-ed986677-c8e6-413e-862b-355cf322c66e" d="m342.962,268.258c0-1.323.954-2.331,2.196-2.331,1.233,0,2.134.98,2.134,2.331v.243h-3.331c.1.729.648,1.261,1.351,1.261.423,0,.819-.162,1.071-.423l.666.603c-.549.459-1.098.657-1.782.657-1.296,0-2.305-1.018-2.305-2.341Zm3.367-.387c-.108-.657-.576-1.116-1.18-1.116-.612,0-1.062.441-1.179,1.116h2.358Z"/>
        <path class="uuid-ed986677-c8e6-413e-862b-355cf322c66e" d="m347.795,265.998h1.107l1.261,3.277,1.251-3.277h1.062l-1.854,4.511h-.99l-1.837-4.511Z"/>
        <path class="uuid-ed986677-c8e6-413e-862b-355cf322c66e" d="m352.998,268.258c0-1.323.954-2.331,2.196-2.331,1.233,0,2.134.98,2.134,2.331v.243h-3.331c.1.729.648,1.261,1.351,1.261.423,0,.819-.162,1.071-.423l.666.603c-.549.459-1.098.657-1.782.657-1.296,0-2.305-1.018-2.305-2.341Zm3.367-.387c-.108-.657-.576-1.116-1.18-1.116-.612,0-1.062.441-1.179,1.116h2.358Z"/>
      </g>
      <g>
        <path class="uuid-3cdc59fc-3fc1-41cc-960f-8f9063d5d5d4" d="m363.76,237.744v19c0,.35-.28.63-.62.63h-25.717c-.35,0-.63-.28-.63-.63v-18.876l.347-.744.656.016h12.4l.9-2.976h7.194c.3,0,.55.21.62.5l.52,2.46h3.71c.34,0,.62.28.62.62Z"/>
        <path class="uuid-142de210-e6b2-4b65-bbb4-f78ec041174c" d="m363.76,237.744v19c0,.35-.28.63-.62.63h-26c-.35,0-.63-.28-.63-.63v-19c0-.34.28-.62.63-.62.34,0,.62.28.62.62v18.38h24.75v-17.75h-3.59c-.29,0-.55-.21-.61-.5l-.52-2.46h-6.31l-.52,2.46c-.06.29-.32.5-.61.5h-9.38v14.37c0,.35-.28.63-.62.63-.35,0-.63-.28-.63-.63v-15c0-.34.28-.62.63-.62h9.49l.52-2.46c.07-.29.32-.5.62-.5h7.31c.3,0,.55.21.62.5l.52,2.46h3.71c.34,0,.62.28.62.62Z"/>
      </g>
    </g>
    <g>
      <rect class="uuid-c2625ffa-bbbf-4277-baac-d0f6affd2736" x="250.923" y="224.584" width="56.693" height="56.693"/>
      <g>
        <path class="uuid-ed986677-c8e6-413e-862b-355cf322c66e" d="m271.713,264.081l1.018-.171v2.691c.314-.396.819-.639,1.386-.639,1.144,0,2.035,1.017,2.035,2.295,0,1.288-.918,2.296-2.098,2.296-.531,0-.999-.216-1.342-.621v.576h-.999v-6.428Zm3.439,4.177c0-.819-.576-1.44-1.342-1.44-.45,0-.819.181-1.08.505v1.881c.261.315.648.505,1.08.505.774,0,1.342-.622,1.342-1.45Z"/>
        <path class="uuid-ed986677-c8e6-413e-862b-355cf322c66e" d="m277.005,268.258c0-1.332.973-2.331,2.269-2.331,1.287,0,2.26.999,2.26,2.331s-.973,2.332-2.26,2.332c-1.296,0-2.269-.999-2.269-2.332Zm3.529,0c0-.837-.531-1.467-1.261-1.467-.738,0-1.27.63-1.27,1.467,0,.847.531,1.468,1.27,1.468.729,0,1.261-.621,1.261-1.468Z"/>
        <path class="uuid-ed986677-c8e6-413e-862b-355cf322c66e" d="m282.586,264.081l1.017-.171v2.691c.315-.396.819-.639,1.387-.639,1.144,0,2.034,1.017,2.034,2.295,0,1.288-.918,2.296-2.098,2.296-.53,0-.999-.216-1.341-.621v.576h-.999v-6.428Zm3.438,4.177c0-.819-.576-1.44-1.341-1.44-.45,0-.819.181-1.081.505v1.881c.262.315.648.505,1.081.505.773,0,1.341-.622,1.341-1.45Z"/>
      </g>
      <g>
        <path class="uuid-3cdc59fc-3fc1-41cc-960f-8f9063d5d5d4" d="m292.894,237.744v19c0,.35-.28.63-.62.63h-25.717c-.35,0-.63-.28-.63-.63v-18.876l.347-.744.656.016h12.4l.9-2.976h7.194c.3,0,.55.21.62.5l.52,2.46h3.71c.34,0,.62.28.62.62Z"/>
        <path class="uuid-142de210-e6b2-4b65-bbb4-f78ec041174c" d="m292.894,237.744v19c0,.35-.28.63-.62.63h-26c-.35,0-.63-.28-.63-.63v-19c0-.34.28-.62.63-.62.34,0,.62.28.62.62v18.38h24.75v-17.75h-3.59c-.29,0-.55-.21-.61-.5l-.52-2.46h-6.31l-.52,2.46c-.06.29-.32.5-.61.5h-9.38v14.37c0,.35-.28.63-.62.63-.35,0-.63-.28-.63-.63v-15c0-.34.28-.62.63-.62h9.49l.52-2.46c.07-.29.32-.5.62-.5h7.31c.3,0,.55.21.62.5l.52,2.46h3.71c.34,0,.62.28.62.62Z"/>
      </g>
    </g>
    <g>
      <rect class="uuid-c2625ffa-bbbf-4277-baac-d0f6affd2736" x="180.057" y="224.584" width="56.693" height="56.693"/>
      <g>
        <path class="uuid-ed986677-c8e6-413e-862b-355cf322c66e" d="m199.124,269.212c0-.81.667-1.323,1.729-1.323.424,0,.82.091,1.216.288v-.504c0-.594-.342-.9-1.035-.9-.378,0-.792.108-1.314.352l-.36-.738c.676-.307,1.27-.459,1.873-.459,1.18,0,1.846.594,1.846,1.638v2.944h-1.009v-.468c-.387.378-.819.549-1.341.549-.945,0-1.604-.567-1.604-1.378Zm1.883.657c.404,0,.756-.116,1.062-.378v-.729c-.323-.153-.647-.217-1.035-.217-.585,0-.954.243-.954.648,0,.414.359.675.928.675Z"/>
        <path class="uuid-ed986677-c8e6-413e-862b-355cf322c66e" d="m204.308,264.054l1.017-.18v6.635h-1.017v-6.455Z"/>
        <path class="uuid-ed986677-c8e6-413e-862b-355cf322c66e" d="m206.45,264.459c0-.342.279-.63.631-.63.342,0,.63.288.63.63s-.288.621-.63.621c-.352,0-.631-.279-.631-.621Zm.117,1.539h1.018v4.511h-1.018v-4.511Z"/>
        <path class="uuid-ed986677-c8e6-413e-862b-355cf322c66e" d="m208.637,268.258c0-1.305.99-2.331,2.277-2.331.702,0,1.351.278,1.801.765l-.631.657c-.314-.351-.701-.531-1.134-.531-.729,0-1.296.631-1.296,1.44,0,.819.566,1.44,1.296,1.44.433,0,.819-.18,1.134-.521l.631.647c-.45.486-1.099.766-1.801.766-1.287,0-2.277-1.018-2.277-2.332Z"/>
        <path class="uuid-ed986677-c8e6-413e-862b-355cf322c66e" d="m213.344,268.258c0-1.323.954-2.331,2.196-2.331,1.233,0,2.134.98,2.134,2.331v.243h-3.331c.099.729.648,1.261,1.351,1.261.423,0,.819-.162,1.071-.423l.666.603c-.549.459-1.099.657-1.782.657-1.297,0-2.305-1.018-2.305-2.341Zm3.367-.387c-.108-.657-.576-1.116-1.18-1.116-.612,0-1.062.441-1.18,1.116h2.359Z"/>
      </g>
      <g>
        <path class="uuid-3cdc59fc-3fc1-41cc-960f-8f9063d5d5d4" d="m222.028,237.744v19c0,.35-.28.63-.62.63h-25.717c-.35,0-.63-.28-.63-.63v-18.876l.347-.744.656.016h12.4l.9-2.976h7.194c.3,0,.55.21.62.5l.52,2.46h3.71c.34,0,.62.28.62.62Z"/>
        <path class="uuid-142de210-e6b2-4b65-bbb4-f78ec041174c" d="m222.028,237.744v19c0,.35-.28.63-.62.63h-26c-.35,0-.63-.28-.63-.63v-19c0-.34.28-.62.63-.62.34,0,.62.28.62.62v18.38h24.75v-17.75h-3.59c-.29,0-.55-.21-.61-.5l-.52-2.46h-6.31l-.52,2.46c-.06.29-.32.5-.61.5h-9.38v14.37c0,.35-.28.63-.62.63-.35,0-.63-.28-.63-.63v-15c0-.34.28-.62.63-.62h9.49l.52-2.46c.07-.29.32-.5.62-.5h7.31c.3,0,.55.21.62.5l.52,2.46h3.71c.34,0,.62.28.62.62Z"/>
      </g>
    </g>
    <g>
      <rect class="uuid-c2625ffa-bbbf-4277-baac-d0f6affd2736" x="463.521" y="224.584" width="56.693" height="56.693"/>
      <g>
        <path class="uuid-ed986677-c8e6-413e-862b-355cf322c66e" d="m485.996,264.081l1.017-.171v2.691c.315-.396.819-.639,1.387-.639,1.144,0,2.034,1.017,2.034,2.295,0,1.288-.918,2.296-2.098,2.296-.53,0-.999-.216-1.341-.621v.576h-.999v-6.428Zm3.438,4.177c0-.819-.576-1.44-1.341-1.44-.45,0-.819.181-1.081.505v1.881c.262.315.648.505,1.081.505.773,0,1.341-.622,1.341-1.45Z"/>
        <path class="uuid-ed986677-c8e6-413e-862b-355cf322c66e" d="m491.369,264.459c0-.342.278-.63.63-.63.342,0,.63.288.63.63s-.288.621-.63.621c-.352,0-.63-.279-.63-.621Zm.116,1.539h1.018v4.511h-1.018v-4.511Z"/>
        <path class="uuid-ed986677-c8e6-413e-862b-355cf322c66e" d="m493.762,265.998h1.018v.738c.342-.531.837-.81,1.422-.81.928,0,1.576.657,1.576,1.611v2.971h-1.026v-2.683c0-.657-.388-1.08-.99-1.08-.414,0-.748.188-.981.549v3.214h-1.018v-4.511Z"/>
      </g>
      <g>
        <path class="uuid-3cdc59fc-3fc1-41cc-960f-8f9063d5d5d4" d="m505.493,237.744v19c0,.35-.28.63-.62.63h-25.717c-.35,0-.63-.28-.63-.63v-18.876l.347-.744.656.016h12.4l.9-2.976h7.194c.3,0,.55.21.62.5l.52,2.46h3.71c.34,0,.62.28.62.62Z"/>
        <path class="uuid-142de210-e6b2-4b65-bbb4-f78ec041174c" d="m505.493,237.744v19c0,.35-.28.63-.62.63h-26c-.35,0-.63-.28-.63-.63v-19c0-.34.28-.62.63-.62.34,0,.62.28.62.62v18.38h24.75v-17.75h-3.59c-.29,0-.55-.21-.61-.5l-.52-2.46h-6.31l-.52,2.46c-.06.29-.32.5-.61.5h-9.38v14.37c0,.35-.28.63-.62.63-.35,0-.63-.28-.63-.63v-15c0-.34.28-.62.63-.62h9.49l.52-2.46c.07-.29.32-.5.62-.5h7.31c.3,0,.55.21.62.5l.52,2.46h3.71c.34,0,.62.28.62.62Z"/>
      </g>
    </g>
    <g>
      <rect class="uuid-c2625ffa-bbbf-4277-baac-d0f6affd2736" x="534.387" y="224.584" width="56.693" height="56.693"/>
      <g>
        <path class="uuid-ed986677-c8e6-413e-862b-355cf322c66e" d="m553.581,264.054l1.018-.18v6.635h-1.018v-6.455Z"/>
        <path class="uuid-ed986677-c8e6-413e-862b-355cf322c66e" d="m555.642,268.258c0-1.332.972-2.331,2.269-2.331,1.287,0,2.26.999,2.26,2.331s-.973,2.332-2.26,2.332c-1.297,0-2.269-.999-2.269-2.332Zm3.528,0c0-.837-.531-1.467-1.26-1.467-.738,0-1.27.63-1.27,1.467,0,.847.531,1.468,1.27,1.468.729,0,1.26-.621,1.26-1.468Z"/>
        <path class="uuid-ed986677-c8e6-413e-862b-355cf322c66e" d="m561.014,268.258c0-1.305.99-2.331,2.277-2.331.703,0,1.352.278,1.801.765l-.63.657c-.315-.351-.702-.531-1.134-.531-.729,0-1.297.631-1.297,1.44,0,.819.567,1.44,1.297,1.44.432,0,.818-.18,1.134-.521l.63.647c-.449.486-1.098.766-1.801.766-1.287,0-2.277-1.018-2.277-2.332Z"/>
        <path class="uuid-ed986677-c8e6-413e-862b-355cf322c66e" d="m565.694,269.212c0-.81.667-1.323,1.729-1.323.424,0,.82.091,1.216.288v-.504c0-.594-.342-.9-1.035-.9-.378,0-.792.108-1.314.352l-.36-.738c.676-.307,1.27-.459,1.873-.459,1.18,0,1.846.594,1.846,1.638v2.944h-1.009v-.468c-.388.378-.819.549-1.341.549-.945,0-1.604-.567-1.604-1.378Zm1.883.657c.404,0,.756-.116,1.062-.378v-.729c-.323-.153-.647-.217-1.035-.217-.585,0-.954.243-.954.648,0,.414.359.675.928.675Z"/>
        <path class="uuid-ed986677-c8e6-413e-862b-355cf322c66e" d="m570.879,264.054l1.017-.18v6.635h-1.017v-6.455Z"/>
      </g>
      <g>
        <path class="uuid-3cdc59fc-3fc1-41cc-960f-8f9063d5d5d4" d="m576.359,237.744v19c0,.35-.28.63-.62.63h-25.717c-.35,0-.63-.28-.63-.63v-18.876l.347-.744.656.016h12.4l.9-2.976h7.194c.3,0,.55.21.62.5l.52,2.46h3.71c.34,0,.62.28.62.62Z"/>
        <path class="uuid-142de210-e6b2-4b65-bbb4-f78ec041174c" d="m576.359,237.744v19c0,.35-.28.63-.62.63h-26c-.35,0-.63-.28-.63-.63v-19c0-.34.28-.62.63-.62.34,0,.62.28.62.62v18.38h24.75v-17.75h-3.59c-.29,0-.55-.21-.61-.5l-.52-2.46h-6.31l-.52,2.46c-.06.29-.32.5-.61.5h-9.38v14.37c0,.35-.28.63-.62.63-.35,0-.63-.28-.63-.63v-15c0-.34.28-.62.63-.62h9.49l.52-2.46c.07-.29.32-.5.62-.5h7.31c.3,0,.55.21.62.5l.52,2.46h3.71c.34,0,.62.28.62.62Z"/>
      </g>
    </g>
    <g>
      <rect class="uuid-c2625ffa-bbbf-4277-baac-d0f6affd2736" x="605.254" y="224.584" width="56.693" height="56.693"/>
      <g>
        <path class="uuid-ed986677-c8e6-413e-862b-355cf322c66e" d="m625.167,269.986l.478-.675c.594.369.99.513,1.449.513.54,0,.909-.252.909-.612,0-.278-.188-.423-.63-.513l-.792-.135c-.883-.162-1.306-.567-1.306-1.242,0-.847.693-1.396,1.746-1.396.631,0,1.197.18,1.773.54l-.477.675c-.459-.297-.9-.432-1.359-.432-.469,0-.774.197-.774.521,0,.288.162.414.63.495l.802.153c.9.162,1.332.576,1.332,1.252,0,.828-.792,1.467-1.846,1.467-.774,0-1.458-.216-1.936-.612Z"/>
        <path class="uuid-ed986677-c8e6-413e-862b-355cf322c66e" d="m629.883,264.081l1.017-.171v2.691c.315-.396.819-.639,1.387-.639,1.144,0,2.034,1.017,2.034,2.295,0,1.288-.918,2.296-2.098,2.296-.53,0-.999-.216-1.341-.621v.576h-.999v-6.428Zm3.438,4.177c0-.819-.576-1.44-1.341-1.44-.45,0-.819.181-1.081.505v1.881c.262.315.648.505,1.081.505.773,0,1.341-.622,1.341-1.45Z"/>
        <path class="uuid-ed986677-c8e6-413e-862b-355cf322c66e" d="m635.255,264.459c0-.342.279-.63.631-.63.342,0,.63.288.63.63s-.288.621-.63.621c-.352,0-.631-.279-.631-.621Zm.117,1.539h1.018v4.511h-1.018v-4.511Z"/>
        <path class="uuid-ed986677-c8e6-413e-862b-355cf322c66e" d="m637.65,265.998h1.017v.738c.343-.531.838-.81,1.423-.81.927,0,1.575.657,1.575,1.611v2.971h-1.026v-2.683c0-.657-.387-1.08-.99-1.08-.414,0-.747.188-.981.549v3.214h-1.017v-4.511Z"/>
      </g>
      <g>
        <path class="uuid-3cdc59fc-3fc1-41cc-960f-8f9063d5d5d4" d="m647.225,237.744v19c0,.35-.28.63-.62.63h-25.717c-.35,0-.63-.28-.63-.63v-18.876l.347-.744.656.016h12.4l.9-2.976h7.194c.3,0,.55.21.62.5l.52,2.46h3.71c.34,0,.62.28.62.62Z"/>
        <path class="uuid-142de210-e6b2-4b65-bbb4-f78ec041174c" d="m647.225,237.744v19c0,.35-.28.63-.62.63h-26c-.35,0-.63-.28-.63-.63v-19c0-.34.28-.62.63-.62.34,0,.62.28.62.62v18.38h24.75v-17.75h-3.59c-.29,0-.55-.21-.61-.5l-.52-2.46h-6.31l-.52,2.46c-.06.29-.32.5-.61.5h-9.38v14.37c0,.35-.28.63-.62.63-.35,0-.63-.28-.63-.63v-15c0-.34.28-.62.63-.62h9.49l.52-2.46c.07-.29.32-.5.62-.5h7.31c.3,0,.55.21.62.5l.52,2.46h3.71c.34,0,.62.28.62.62Z"/>
      </g>
    </g>
    <g>
      <rect class="uuid-c2625ffa-bbbf-4277-baac-d0f6affd2736" x="676.12" y="224.584" width="56.693" height="56.693"/>
      <g>
        <path class="uuid-ed986677-c8e6-413e-862b-355cf322c66e" d="m697.1,269.339v-2.53h-.9v-.811h.9v-1.242l1.017-.216v1.458h1.252v.811h-1.252v2.305c0,.441.171.612.631.612.197,0,.342-.027.612-.108v.855c-.262.081-.604.126-.874.126-.909,0-1.386-.432-1.386-1.26Z"/>
        <path class="uuid-ed986677-c8e6-413e-862b-355cf322c66e" d="m700.268,265.998h1.017v.712c.333-.514.783-.783,1.333-.783.621,0,1.098.333,1.332.864.352-.567.855-.864,1.494-.864.874,0,1.477.675,1.477,1.629v2.953h-1.018v-2.728c0-.631-.351-1.035-.909-1.035-.369,0-.675.171-.899.54.009.09.018.18.018.27v2.953h-1.026v-2.728c0-.631-.352-1.035-.909-1.035-.369,0-.666.171-.892.521v3.241h-1.017v-4.511Z"/>
        <path class="uuid-ed986677-c8e6-413e-862b-355cf322c66e" d="m708.152,265.998h.999v.64c.324-.423.828-.675,1.404-.675,1.144,0,2.034,1.017,2.034,2.295,0,1.288-.918,2.296-2.098,2.296-.53,0-.999-.198-1.323-.576v2.413h-1.017v-6.393Zm3.438,2.26c0-.819-.576-1.44-1.341-1.44-.45,0-.819.181-1.081.505v1.881c.262.315.648.505,1.081.505.773,0,1.341-.622,1.341-1.45Z"/>
      </g>
      <g>
        <path class="uuid-3cdc59fc-3fc1-41cc-960f-8f9063d5d5d4" d="m718.091,237.744v19c0,.35-.28.63-.62.63h-25.717c-.35,0-.63-.28-.63-.63v-18.876l.347-.744.656.016h12.4l.9-2.976h7.194c.3,0,.55.21.62.5l.52,2.46h3.71c.34,0,.62.28.62.62Z"/>
        <path class="uuid-142de210-e6b2-4b65-bbb4-f78ec041174c" d="m718.091,237.744v19c0,.35-.28.63-.62.63h-26c-.35,0-.63-.28-.63-.63v-19c0-.34.28-.62.63-.62.34,0,.62.28.62.62v18.38h24.75v-17.75h-3.59c-.29,0-.55-.21-.61-.5l-.52-2.46h-6.31l-.52,2.46c-.06.29-.32.5-.61.5h-9.38v14.37c0,.35-.28.63-.62.63-.35,0-.63-.28-.63-.63v-15c0-.34.28-.62.63-.62h9.49l.52-2.46c.07-.29.32-.5.62-.5h7.31c.3,0,.55.21.62.5l.52,2.46h3.71c.34,0,.62.28.62.62Z"/>
      </g>
    </g>
    <g>
      <rect class="uuid-c2625ffa-bbbf-4277-baac-d0f6affd2736" x="746.986" y="224.584" width="56.693" height="56.693"/>
      <g>
        <path class="uuid-ed986677-c8e6-413e-862b-355cf322c66e" d="m767.966,269.339v-2.53h-.9v-.811h.9v-1.242l1.017-.216v1.458h1.252v.811h-1.252v2.305c0,.441.171.612.631.612.197,0,.342-.027.612-.108v.855c-.262.081-.604.126-.874.126-.909,0-1.386-.432-1.386-1.26Z"/>
        <path class="uuid-ed986677-c8e6-413e-862b-355cf322c66e" d="m771.134,265.998h1.017v.712c.333-.514.783-.783,1.333-.783.621,0,1.098.333,1.332.864.352-.567.855-.864,1.494-.864.874,0,1.477.675,1.477,1.629v2.953h-1.018v-2.728c0-.631-.351-1.035-.909-1.035-.369,0-.675.171-.899.54.009.09.018.18.018.27v2.953h-1.026v-2.728c0-.631-.352-1.035-.909-1.035-.369,0-.666.171-.892.521v3.241h-1.017v-4.511Z"/>
        <path class="uuid-ed986677-c8e6-413e-862b-355cf322c66e" d="m779.018,265.998h.999v.64c.324-.423.828-.675,1.404-.675,1.144,0,2.034,1.017,2.034,2.295,0,1.288-.918,2.296-2.098,2.296-.53,0-.999-.198-1.323-.576v2.413h-1.017v-6.393Zm3.438,2.26c0-.819-.576-1.44-1.341-1.44-.45,0-.819.181-1.081.505v1.881c.262.315.648.505,1.081.505.773,0,1.341-.622,1.341-1.45Z"/>
      </g>
      <g>
        <path class="uuid-3cdc59fc-3fc1-41cc-960f-8f9063d5d5d4" d="m788.957,237.744v19c0,.35-.28.63-.62.63h-25.717c-.35,0-.63-.28-.63-.63v-18.876l.347-.744.656.016h12.4l.9-2.976h7.194c.3,0,.55.21.62.5l.52,2.46h3.71c.34,0,.62.28.62.62Z"/>
        <path class="uuid-142de210-e6b2-4b65-bbb4-f78ec041174c" d="m788.957,237.744v19c0,.35-.28.63-.62.63h-26c-.35,0-.63-.28-.63-.63v-19c0-.34.28-.62.63-.62.34,0,.62.28.62.62v18.38h24.75v-17.75h-3.59c-.29,0-.55-.21-.61-.5l-.52-2.46h-6.31l-.52,2.46c-.06.29-.32.5-.61.5h-9.38v14.37c0,.35-.28.63-.62.63-.35,0-.63-.28-.63-.63v-15c0-.34.28-.62.63-.62h9.49l.52-2.46c.07-.29.32-.5.62-.5h7.31c.3,0,.55.21.62.5l.52,2.46h3.71c.34,0,.62.28.62.62Z"/>
      </g>
    </g>
  </g>
  <g id="uuid-d489a369-212a-432d-8a79-4322d766a7e2" data-name="Layer 3">
    <polyline class="uuid-37088ae0-2887-45cb-b665-21a3270d089f" points="66.671 125.34 66.671 104.797 421.049 104.797 421.049 82.637"/>
    <polyline class="uuid-37088ae0-2887-45cb-b665-21a3270d089f" points="350.135 125.339 350.135 104.796 421.052 104.796 421.052 82.636"/>
    <polyline class="uuid-37088ae0-2887-45cb-b665-21a3270d089f" points="491.867 125.337 491.867 104.794 421.051 104.794 421.051 82.634"/>
    <polyline class="uuid-37088ae0-2887-45cb-b665-21a3270d089f" points="775.474 125.339 775.474 104.795 421.052 104.795 421.052 82.636"/>
    <polyline class="uuid-37088ae0-2887-45cb-b665-21a3270d089f" points="137.537 125.34 137.537 104.797 421.049 104.797 421.049 82.637"/>
    <polyline class="uuid-37088ae0-2887-45cb-b665-21a3270d089f" points="208.545 125.34 208.545 104.797 421.049 104.797 421.049 82.637"/>
    <polyline class="uuid-37088ae0-2887-45cb-b665-21a3270d089f" points="279.411 125.34 279.411 104.797 421.049 104.797 421.049 82.637"/>
    <polyline class="uuid-37088ae0-2887-45cb-b665-21a3270d089f" points="704.465 125.339 704.465 104.795 421.052 104.795 421.052 82.636"/>
    <polyline class="uuid-37088ae0-2887-45cb-b665-21a3270d089f" points="633.742 125.338 633.742 104.795 421.052 104.795 421.052 82.635"/>
    <polyline class="uuid-37088ae0-2887-45cb-b665-21a3270d089f" points="562.733 125.338 562.733 104.795 421.052 104.795 421.052 82.635"/>
    <line class="uuid-37088ae0-2887-45cb-b665-21a3270d089f" x1="421.051" y1="125.337" x2="421.051" y2="82.633"/>
    <g>
      <rect class="uuid-c2625ffa-bbbf-4277-baac-d0f6affd2736" x="38.324" y="125.371" width="56.693" height="56.693"/>
      <g>
        <path class="uuid-ed986677-c8e6-413e-862b-355cf322c66e" d="m60.798,164.869l1.018-.171v2.691c.314-.396.819-.639,1.386-.639,1.144,0,2.035,1.017,2.035,2.295,0,1.288-.918,2.296-2.098,2.296-.531,0-.999-.216-1.342-.621v.576h-.999v-6.428Zm3.439,4.177c0-.819-.576-1.44-1.342-1.44-.45,0-.819.181-1.08.505v1.881c.261.315.648.505,1.08.505.774,0,1.342-.622,1.342-1.45Z"/>
        <path class="uuid-ed986677-c8e6-413e-862b-355cf322c66e" d="m66.171,165.247c0-.342.279-.63.63-.63.343,0,.631.288.631.63s-.288.621-.631.621c-.351,0-.63-.279-.63-.621Zm.117,1.539h1.018v4.511h-1.018v-4.511Z"/>
        <path class="uuid-ed986677-c8e6-413e-862b-355cf322c66e" d="m68.566,166.786h1.017v.738c.343-.531.838-.81,1.423-.81.927,0,1.575.657,1.575,1.611v2.971h-1.026v-2.683c0-.657-.387-1.08-.99-1.08-.414,0-.747.188-.981.549v3.214h-1.017v-4.511Z"/>
      </g>
      <g>
        <path class="uuid-3cdc59fc-3fc1-41cc-960f-8f9063d5d5d4" d="m80.296,138.531v19c0,.35-.28.63-.62.63h-25.717c-.35,0-.63-.28-.63-.63v-18.876l.347-.744.656.016h12.4l.9-2.976h7.194c.3,0,.55.21.62.5l.52,2.46h3.71c.34,0,.62.28.62.62Z"/>
        <path class="uuid-142de210-e6b2-4b65-bbb4-f78ec041174c" d="m80.296,138.531v19c0,.35-.28.63-.62.63h-26c-.35,0-.63-.28-.63-.63v-19c0-.34.28-.62.63-.62.34,0,.62.28.62.62v18.38h24.75v-17.75h-3.59c-.29,0-.55-.21-.61-.5l-.52-2.46h-6.31l-.52,2.46c-.06.29-.32.5-.61.5h-9.38v14.37c0,.35-.28.63-.62.63-.35,0-.63-.28-.63-.63v-15c0-.34.28-.62.63-.62h9.49l.52-2.46c.07-.29.32-.5.62-.5h7.31c.3,0,.55.21.62.5l.52,2.46h3.71c.34,0,.62.28.62.62Z"/>
      </g>
    </g>
    <g>
      <rect class="uuid-c2625ffa-bbbf-4277-baac-d0f6affd2736" x="109.191" y="125.371" width="56.693" height="56.693"/>
      <g>
        <path class="uuid-ed986677-c8e6-413e-862b-355cf322c66e" d="m128.182,164.869l1.017-.171v2.691c.315-.396.819-.639,1.387-.639,1.144,0,2.034,1.017,2.034,2.295,0,1.288-.918,2.296-2.098,2.296-.53,0-.999-.216-1.341-.621v.576h-.999v-6.428Zm3.438,4.177c0-.819-.576-1.44-1.341-1.44-.45,0-.819.181-1.081.505v1.881c.262.315.648.505,1.081.505.773,0,1.341-.622,1.341-1.45Z"/>
        <path class="uuid-ed986677-c8e6-413e-862b-355cf322c66e" d="m133.474,169.046c0-1.332.972-2.331,2.269-2.331,1.287,0,2.26.999,2.26,2.331s-.973,2.332-2.26,2.332c-1.297,0-2.269-.999-2.269-2.332Zm3.528,0c0-.837-.531-1.467-1.26-1.467-.738,0-1.27.63-1.27,1.467,0,.847.531,1.468,1.27,1.468.729,0,1.26-.621,1.26-1.468Z"/>
        <path class="uuid-ed986677-c8e6-413e-862b-355cf322c66e" d="m138.846,169.046c0-1.332.973-2.331,2.269-2.331,1.287,0,2.26.999,2.26,2.331s-.973,2.332-2.26,2.332c-1.296,0-2.269-.999-2.269-2.332Zm3.529,0c0-.837-.531-1.467-1.261-1.467-.738,0-1.27.63-1.27,1.467,0,.847.531,1.468,1.27,1.468.729,0,1.261-.621,1.261-1.468Z"/>
        <path class="uuid-ed986677-c8e6-413e-862b-355cf322c66e" d="m144.985,170.127v-2.53h-.9v-.811h.9v-1.242l1.017-.216v1.458h1.252v.811h-1.252v2.305c0,.441.171.612.631.612.197,0,.342-.027.612-.108v.855c-.262.081-.604.126-.874.126-.909,0-1.386-.432-1.386-1.26Z"/>
      </g>
      <g>
        <path class="uuid-3cdc59fc-3fc1-41cc-960f-8f9063d5d5d4" d="m151.162,138.531v19c0,.35-.28.63-.62.63h-25.717c-.35,0-.63-.28-.63-.63v-18.876l.347-.744.656.016h12.4l.9-2.976h7.194c.3,0,.55.21.62.5l.52,2.46h3.71c.34,0,.62.28.62.62Z"/>
        <path class="uuid-142de210-e6b2-4b65-bbb4-f78ec041174c" d="m151.162,138.531v19c0,.35-.28.63-.62.63h-26c-.35,0-.63-.28-.63-.63v-19c0-.34.28-.62.63-.62.34,0,.62.28.62.62v18.38h24.75v-17.75h-3.59c-.29,0-.55-.21-.61-.5l-.52-2.46h-6.31l-.52,2.46c-.06.29-.32.5-.61.5h-9.38v14.37c0,.35-.28.63-.62.63-.35,0-.63-.28-.63-.63v-15c0-.34.28-.62.63-.62h9.49l.52-2.46c.07-.29.32-.5.62-.5h7.31c.3,0,.55.21.62.5l.52,2.46h3.71c.34,0,.62.28.62.62Z"/>
      </g>
    </g>
    <g>
      <rect class="uuid-c2625ffa-bbbf-4277-baac-d0f6affd2736" x="180.057" y="125.371" width="56.693" height="56.693"/>
      <g>
        <path class="uuid-ed986677-c8e6-413e-862b-355cf322c66e" d="m201.064,169.046c0-1.287.927-2.295,2.106-2.295.514,0,.981.207,1.314.585v-2.494l1.018-.18v6.635h-1.009v-.594c-.324.404-.828.639-1.396.639-1.143,0-2.034-1.018-2.034-2.296Zm3.421.945v-1.899c-.262-.306-.648-.486-1.071-.486-.774,0-1.351.612-1.351,1.44,0,.819.576,1.44,1.351,1.44.44,0,.81-.171,1.071-.495Z"/>
        <path class="uuid-ed986677-c8e6-413e-862b-355cf322c66e" d="m206.553,169.046c0-1.323.955-2.331,2.197-2.331,1.232,0,2.133.98,2.133,2.331v.243h-3.33c.099.729.648,1.261,1.35,1.261.424,0,.82-.162,1.072-.423l.666.603c-.55.459-1.099.657-1.783.657-1.296,0-2.305-1.018-2.305-2.341Zm3.367-.387c-.107-.657-.576-1.116-1.18-1.116-.611,0-1.062.441-1.179,1.116h2.358Z"/>
        <path class="uuid-ed986677-c8e6-413e-862b-355cf322c66e" d="m211.387,166.786h1.107l1.26,3.277,1.252-3.277h1.062l-1.854,4.511h-.99l-1.836-4.511Z"/>
      </g>
      <g>
        <path class="uuid-3cdc59fc-3fc1-41cc-960f-8f9063d5d5d4" d="m222.028,138.531v19c0,.35-.28.63-.62.63h-25.717c-.35,0-.63-.28-.63-.63v-18.876l.347-.744.656.016h12.4l.9-2.976h7.194c.3,0,.55.21.62.5l.52,2.46h3.71c.34,0,.62.28.62.62Z"/>
        <path class="uuid-142de210-e6b2-4b65-bbb4-f78ec041174c" d="m222.028,138.531v19c0,.35-.28.63-.62.63h-26c-.35,0-.63-.28-.63-.63v-19c0-.34.28-.62.63-.62.34,0,.62.28.62.62v18.38h24.75v-17.75h-3.59c-.29,0-.55-.21-.61-.5l-.52-2.46h-6.31l-.52,2.46c-.06.29-.32.5-.61.5h-9.38v14.37c0,.35-.28.63-.62.63-.35,0-.63-.28-.63-.63v-15c0-.34.28-.62.63-.62h9.49l.52-2.46c.07-.29.32-.5.62-.5h7.31c.3,0,.55.21.62.5l.52,2.46h3.71c.34,0,.62.28.62.62Z"/>
      </g>
    </g>
    <g>
      <rect class="uuid-c2625ffa-bbbf-4277-baac-d0f6affd2736" x="250.923" y="125.371" width="56.693" height="56.693"/>
      <g>
        <path class="uuid-ed986677-c8e6-413e-862b-355cf322c66e" d="m272.897,169.046c0-1.323.954-2.331,2.196-2.331,1.233,0,2.134.98,2.134,2.331v.243h-3.331c.1.729.648,1.261,1.351,1.261.423,0,.819-.162,1.071-.423l.666.603c-.549.459-1.098.657-1.782.657-1.296,0-2.305-1.018-2.305-2.341Zm3.367-.387c-.108-.657-.576-1.116-1.18-1.116-.612,0-1.062.441-1.179,1.116h2.358Z"/>
        <path class="uuid-ed986677-c8e6-413e-862b-355cf322c66e" d="m278.82,170.127v-2.53h-.9v-.811h.9v-1.242l1.017-.216v1.458h1.252v.811h-1.252v2.305c0,.441.172.612.631.612.197,0,.342-.027.612-.108v.855c-.262.081-.604.126-.874.126-.909,0-1.386-.432-1.386-1.26Z"/>
        <path class="uuid-ed986677-c8e6-413e-862b-355cf322c66e" d="m281.78,169.046c0-1.305.99-2.331,2.277-2.331.702,0,1.351.278,1.801.765l-.63.657c-.315-.351-.702-.531-1.135-.531-.729,0-1.296.631-1.296,1.44,0,.819.567,1.44,1.296,1.44.433,0,.819-.18,1.135-.521l.63.647c-.45.486-1.099.766-1.801.766-1.287,0-2.277-1.018-2.277-2.332Z"/>
      </g>
      <g>
        <path class="uuid-3cdc59fc-3fc1-41cc-960f-8f9063d5d5d4" d="m292.894,138.531v19c0,.35-.28.63-.62.63h-25.717c-.35,0-.63-.28-.63-.63v-18.876l.347-.744.656.016h12.4l.9-2.976h7.194c.3,0,.55.21.62.5l.52,2.46h3.71c.34,0,.62.28.62.62Z"/>
        <path class="uuid-142de210-e6b2-4b65-bbb4-f78ec041174c" d="m292.894,138.531v19c0,.35-.28.63-.62.63h-26c-.35,0-.63-.28-.63-.63v-19c0-.34.28-.62.63-.62.34,0,.62.28.62.62v18.38h24.75v-17.75h-3.59c-.29,0-.55-.21-.61-.5l-.52-2.46h-6.31l-.52,2.46c-.06.29-.32.5-.61.5h-9.38v14.37c0,.35-.28.63-.62.63-.35,0-.63-.28-.63-.63v-15c0-.34.28-.62.63-.62h9.49l.52-2.46c.07-.29.32-.5.62-.5h7.31c.3,0,.55.21.62.5l.52,2.46h3.71c.34,0,.62.28.62.62Z"/>
      </g>
    </g>
    <g>
      <rect class="uuid-c2625ffa-bbbf-4277-baac-d0f6affd2736" x="321.789" y="125.371" width="56.693" height="56.693"/>
      <g>
        <path class="uuid-ed986677-c8e6-413e-862b-355cf322c66e" d="m338.94,164.842l1.017-.18v2.862c.343-.531.838-.81,1.423-.81.927,0,1.575.657,1.575,1.611v2.971h-1.026v-2.683c0-.657-.387-1.08-.99-1.08-.414,0-.747.188-.981.549v3.214h-1.017v-6.455Z"/>
        <path class="uuid-ed986677-c8e6-413e-862b-355cf322c66e" d="m343.97,169.046c0-1.332.973-2.331,2.269-2.331,1.287,0,2.26.999,2.26,2.331s-.973,2.332-2.26,2.332c-1.296,0-2.269-.999-2.269-2.332Zm3.529,0c0-.837-.531-1.467-1.261-1.467-.738,0-1.27.63-1.27,1.467,0,.847.531,1.468,1.27,1.468.729,0,1.261-.621,1.261-1.468Z"/>
        <path class="uuid-ed986677-c8e6-413e-862b-355cf322c66e" d="m349.55,166.786h1.018v.712c.333-.514.783-.783,1.332-.783.621,0,1.099.333,1.333.864.351-.567.854-.864,1.494-.864.873,0,1.477.675,1.477,1.629v2.953h-1.018v-2.728c0-.631-.352-1.035-.909-1.035-.369,0-.675.171-.9.54.009.09.018.18.018.27v2.953h-1.025v-2.728c0-.631-.352-1.035-.91-1.035-.369,0-.666.171-.891.521v3.241h-1.018v-4.511Z"/>
        <path class="uuid-ed986677-c8e6-413e-862b-355cf322c66e" d="m357.227,169.046c0-1.323.954-2.331,2.196-2.331,1.233,0,2.134.98,2.134,2.331v.243h-3.331c.1.729.648,1.261,1.351,1.261.423,0,.819-.162,1.071-.423l.666.603c-.549.459-1.098.657-1.782.657-1.296,0-2.305-1.018-2.305-2.341Zm3.367-.387c-.108-.657-.576-1.116-1.18-1.116-.612,0-1.062.441-1.179,1.116h2.358Z"/>
      </g>
      <g>
        <path class="uuid-3cdc59fc-3fc1-41cc-960f-8f9063d5d5d4" d="m363.76,138.531v19c0,.35-.28.63-.62.63h-25.717c-.35,0-.63-.28-.63-.63v-18.876l.347-.744.656.016h12.4l.9-2.976h7.194c.3,0,.55.21.62.5l.52,2.46h3.71c.34,0,.62.28.62.62Z"/>
        <path class="uuid-142de210-e6b2-4b65-bbb4-f78ec041174c" d="m363.76,138.531v19c0,.35-.28.63-.62.63h-26c-.35,0-.63-.28-.63-.63v-19c0-.34.28-.62.63-.62.34,0,.62.28.62.62v18.38h24.75v-17.75h-3.59c-.29,0-.55-.21-.61-.5l-.52-2.46h-6.31l-.52,2.46c-.06.29-.32.5-.61.5h-9.38v14.37c0,.35-.28.63-.62.63-.35,0-.63-.28-.63-.63v-15c0-.34.28-.62.63-.62h9.49l.52-2.46c.07-.29.32-.5.62-.5h7.31c.3,0,.55.21.62.5l.52,2.46h3.71c.34,0,.62.28.62.62Z"/>
      </g>
    </g>
    <g>
      <rect class="uuid-c2625ffa-bbbf-4277-baac-d0f6affd2736" x="392.655" y="125.371" width="56.693" height="56.693"/>
      <g>
        <path class="uuid-ed986677-c8e6-413e-862b-355cf322c66e" d="m412.628,166.786h1.017v.973c.252-.685.685-1.054,1.242-1.054.172.01.288.027.441.091v.891c-.162-.062-.369-.107-.558-.107-.495,0-.9.278-1.126.747v2.971h-1.017v-4.511Z"/>
        <path class="uuid-ed986677-c8e6-413e-862b-355cf322c66e" d="m415.958,169.046c0-1.332.972-2.331,2.269-2.331,1.287,0,2.26.999,2.26,2.331s-.973,2.332-2.26,2.332c-1.297,0-2.269-.999-2.269-2.332Zm3.528,0c0-.837-.531-1.467-1.26-1.467-.738,0-1.27.63-1.27,1.467,0,.847.531,1.468,1.27,1.468.729,0,1.26-.621,1.26-1.468Z"/>
        <path class="uuid-ed986677-c8e6-413e-862b-355cf322c66e" d="m421.33,169.046c0-1.332.973-2.331,2.269-2.331,1.287,0,2.26.999,2.26,2.331s-.973,2.332-2.26,2.332c-1.296,0-2.269-.999-2.269-2.332Zm3.529,0c0-.837-.531-1.467-1.261-1.467-.738,0-1.27.63-1.27,1.467,0,.847.531,1.468,1.27,1.468.729,0,1.261-.621,1.261-1.468Z"/>
        <path class="uuid-ed986677-c8e6-413e-862b-355cf322c66e" d="m427.468,170.127v-2.53h-.9v-.811h.9v-1.242l1.017-.216v1.458h1.252v.811h-1.252v2.305c0,.441.172.612.631.612.197,0,.342-.027.612-.108v.855c-.262.081-.604.126-.874.126-.909,0-1.386-.432-1.386-1.26Z"/>
      </g>
      <g>
        <path class="uuid-3cdc59fc-3fc1-41cc-960f-8f9063d5d5d4" d="m434.627,138.531v19c0,.35-.28.63-.62.63h-25.717c-.35,0-.63-.28-.63-.63v-18.876l.347-.744.656.016h12.4l.9-2.976h7.194c.3,0,.55.21.62.5l.52,2.46h3.71c.34,0,.62.28.62.62Z"/>
        <path class="uuid-142de210-e6b2-4b65-bbb4-f78ec041174c" d="m434.627,138.531v19c0,.35-.28.63-.62.63h-26c-.35,0-.63-.28-.63-.63v-19c0-.34.28-.62.63-.62.34,0,.62.28.62.62v18.38h24.75v-17.75h-3.59c-.29,0-.55-.21-.61-.5l-.52-2.46h-6.31l-.52,2.46c-.06.29-.32.5-.61.5h-9.38v14.37c0,.35-.28.63-.62.63-.35,0-.63-.28-.63-.63v-15c0-.34.28-.62.63-.62h9.49l.52-2.46c.07-.29.32-.5.62-.5h7.31c.3,0,.55.21.62.5l.52,2.46h3.71c.34,0,.62.28.62.62Z"/>
      </g>
    </g>
    <g>
      <rect class="uuid-c2625ffa-bbbf-4277-baac-d0f6affd2736" x="463.521" y="125.371" width="56.693" height="56.693"/>
      <g>
        <path class="uuid-ed986677-c8e6-413e-862b-355cf322c66e" d="m485.491,166.786h1.018v.973c.252-.685.684-1.054,1.242-1.054.172.01.288.027.441.091v.891c-.162-.062-.369-.107-.559-.107-.494,0-.9.278-1.125.747v2.971h-1.018v-4.511Z"/>
        <path class="uuid-ed986677-c8e6-413e-862b-355cf322c66e" d="m488.993,169.758v-2.972h1.025v2.674c0,.667.388,1.09.99,1.09.406,0,.748-.181.982-.54v-3.224h1.017v4.511h-1.017v-.729c-.343.531-.829.802-1.432.802-.919,0-1.566-.666-1.566-1.611Z"/>
        <path class="uuid-ed986677-c8e6-413e-862b-355cf322c66e" d="m494.266,166.786h1.018v.738c.342-.531.837-.81,1.422-.81.928,0,1.576.657,1.576,1.611v2.971h-1.027v-2.683c0-.657-.387-1.08-.99-1.08-.414,0-.747.188-.98.549v3.214h-1.018v-4.511Z"/>
      </g>
      <g>
        <path class="uuid-3cdc59fc-3fc1-41cc-960f-8f9063d5d5d4" d="m505.493,138.531v19c0,.35-.28.63-.62.63h-25.717c-.35,0-.63-.28-.63-.63v-18.876l.347-.744.656.016h12.4l.9-2.976h7.194c.3,0,.55.21.62.5l.52,2.46h3.71c.34,0,.62.28.62.62Z"/>
        <path class="uuid-142de210-e6b2-4b65-bbb4-f78ec041174c" d="m505.493,138.531v19c0,.35-.28.63-.62.63h-26c-.35,0-.63-.28-.63-.63v-19c0-.34.28-.62.63-.62.34,0,.62.28.62.62v18.38h24.75v-17.75h-3.59c-.29,0-.55-.21-.61-.5l-.52-2.46h-6.31l-.52,2.46c-.06.29-.32.5-.61.5h-9.38v14.37c0,.35-.28.63-.62.63-.35,0-.63-.28-.63-.63v-15c0-.34.28-.62.63-.62h9.49l.52-2.46c.07-.29.32-.5.62-.5h7.31c.3,0,.55.21.62.5l.52,2.46h3.71c.34,0,.62.28.62.62Z"/>
      </g>
    </g>
    <g>
      <rect class="uuid-c2625ffa-bbbf-4277-baac-d0f6affd2736" x="534.387" y="125.371" width="56.693" height="56.693"/>
      <g>
        <path class="uuid-ed986677-c8e6-413e-862b-355cf322c66e" d="m554.3,170.775l.478-.675c.594.369.99.513,1.449.513.54,0,.909-.252.909-.612,0-.278-.188-.423-.63-.513l-.792-.135c-.883-.162-1.306-.567-1.306-1.242,0-.847.693-1.396,1.746-1.396.631,0,1.197.18,1.773.54l-.477.675c-.459-.297-.9-.432-1.359-.432-.469,0-.774.197-.774.521,0,.288.162.414.63.495l.802.153c.9.162,1.332.576,1.332,1.252,0,.828-.792,1.467-1.846,1.467-.774,0-1.458-.216-1.936-.612Z"/>
        <path class="uuid-ed986677-c8e6-413e-862b-355cf322c66e" d="m559.017,164.869l1.017-.171v2.691c.315-.396.819-.639,1.387-.639,1.144,0,2.034,1.017,2.034,2.295,0,1.288-.918,2.296-2.098,2.296-.53,0-.999-.216-1.341-.621v.576h-.999v-6.428Zm3.438,4.177c0-.819-.576-1.44-1.341-1.44-.45,0-.819.181-1.081.505v1.881c.262.315.648.505,1.081.505.773,0,1.341-.622,1.341-1.45Z"/>
        <path class="uuid-ed986677-c8e6-413e-862b-355cf322c66e" d="m564.389,165.247c0-.342.279-.63.631-.63.342,0,.63.288.63.63s-.288.621-.63.621c-.352,0-.631-.279-.631-.621Zm.117,1.539h1.018v4.511h-1.018v-4.511Z"/>
        <path class="uuid-ed986677-c8e6-413e-862b-355cf322c66e" d="m566.784,166.786h1.017v.738c.343-.531.838-.81,1.423-.81.927,0,1.575.657,1.575,1.611v2.971h-1.026v-2.683c0-.657-.387-1.08-.99-1.08-.414,0-.747.188-.981.549v3.214h-1.017v-4.511Z"/>
      </g>
      <g>
        <path class="uuid-3cdc59fc-3fc1-41cc-960f-8f9063d5d5d4" d="m576.359,138.531v19c0,.35-.28.63-.62.63h-25.717c-.35,0-.63-.28-.63-.63v-18.876l.347-.744.656.016h12.4l.9-2.976h7.194c.3,0,.55.21.62.5l.52,2.46h3.71c.34,0,.62.28.62.62Z"/>
        <path class="uuid-142de210-e6b2-4b65-bbb4-f78ec041174c" d="m576.359,138.531v19c0,.35-.28.63-.62.63h-26c-.35,0-.63-.28-.63-.63v-19c0-.34.28-.62.63-.62.34,0,.62.28.62.62v18.38h24.75v-17.75h-3.59c-.29,0-.55-.21-.61-.5l-.52-2.46h-6.31l-.52,2.46c-.06.29-.32.5-.61.5h-9.38v14.37c0,.35-.28.63-.62.63-.35,0-.63-.28-.63-.63v-15c0-.34.28-.62.63-.62h9.49l.52-2.46c.07-.29.32-.5.62-.5h7.31c.3,0,.55.21.62.5l.52,2.46h3.71c.34,0,.62.28.62.62Z"/>
      </g>
    </g>
    <g>
      <rect class="uuid-c2625ffa-bbbf-4277-baac-d0f6affd2736" x="605.254" y="125.371" width="56.693" height="56.693"/>
      <g>
        <path class="uuid-ed986677-c8e6-413e-862b-355cf322c66e" d="m626.234,170.127v-2.53h-.9v-.811h.9v-1.242l1.017-.216v1.458h1.252v.811h-1.252v2.305c0,.441.171.612.631.612.197,0,.342-.027.612-.108v.855c-.262.081-.604.126-.874.126-.909,0-1.386-.432-1.386-1.26Z"/>
        <path class="uuid-ed986677-c8e6-413e-862b-355cf322c66e" d="m629.402,166.786h1.017v.712c.333-.514.783-.783,1.333-.783.621,0,1.098.333,1.332.864.352-.567.855-.864,1.494-.864.874,0,1.477.675,1.477,1.629v2.953h-1.018v-2.728c0-.631-.351-1.035-.909-1.035-.369,0-.675.171-.899.54.009.09.018.18.018.27v2.953h-1.026v-2.728c0-.631-.352-1.035-.909-1.035-.369,0-.666.171-.892.521v3.241h-1.017v-4.511Z"/>
        <path class="uuid-ed986677-c8e6-413e-862b-355cf322c66e" d="m637.286,166.786h.999v.64c.324-.423.828-.675,1.404-.675,1.144,0,2.034,1.017,2.034,2.295,0,1.288-.918,2.296-2.098,2.296-.53,0-.999-.198-1.323-.576v2.413h-1.017v-6.393Zm3.438,2.26c0-.819-.576-1.44-1.341-1.44-.45,0-.819.181-1.081.505v1.881c.262.315.648.505,1.081.505.773,0,1.341-.622,1.341-1.45Z"/>
      </g>
      <g>
        <path class="uuid-3cdc59fc-3fc1-41cc-960f-8f9063d5d5d4" d="m647.225,138.531v19c0,.35-.28.63-.62.63h-25.717c-.35,0-.63-.28-.63-.63v-18.876l.347-.744.656.016h12.4l.9-2.976h7.194c.3,0,.55.21.62.5l.52,2.46h3.71c.34,0,.62.28.62.62Z"/>
        <path class="uuid-142de210-e6b2-4b65-bbb4-f78ec041174c" d="m647.225,138.531v19c0,.35-.28.63-.62.63h-26c-.35,0-.63-.28-.63-.63v-19c0-.34.28-.62.63-.62.34,0,.62.28.62.62v18.38h24.75v-17.75h-3.59c-.29,0-.55-.21-.61-.5l-.52-2.46h-6.31l-.52,2.46c-.06.29-.32.5-.61.5h-9.38v14.37c0,.35-.28.63-.62.63-.35,0-.63-.28-.63-.63v-15c0-.34.28-.62.63-.62h9.49l.52-2.46c.07-.29.32-.5.62-.5h7.31c.3,0,.55.21.62.5l.52,2.46h3.71c.34,0,.62.28.62.62Z"/>
      </g>
    </g>
    <g>
      <rect class="uuid-c2625ffa-bbbf-4277-baac-d0f6affd2736" x="676.12" y="125.371" width="56.693" height="56.693"/>
      <g>
        <path class="uuid-ed986677-c8e6-413e-862b-355cf322c66e" d="m698.517,169.758v-2.972h1.026v2.674c0,.667.387,1.09.99,1.09.405,0,.747-.181.981-.54v-3.224h1.017v4.511h-1.017v-.729c-.343.531-.829.802-1.432.802-.919,0-1.566-.666-1.566-1.611Z"/>
        <path class="uuid-ed986677-c8e6-413e-862b-355cf322c66e" d="m703.385,170.775l.478-.675c.594.369.99.513,1.449.513.54,0,.909-.252.909-.612,0-.278-.188-.423-.63-.513l-.792-.135c-.883-.162-1.306-.567-1.306-1.242,0-.847.693-1.396,1.746-1.396.631,0,1.197.18,1.773.54l-.477.675c-.459-.297-.9-.432-1.359-.432-.469,0-.774.197-.774.521,0,.288.162.414.63.495l.802.153c.9.162,1.332.576,1.332,1.252,0,.828-.792,1.467-1.846,1.467-.774,0-1.458-.216-1.936-.612Z"/>
        <path class="uuid-ed986677-c8e6-413e-862b-355cf322c66e" d="m708.102,166.786h1.017v.973c.252-.685.685-1.054,1.242-1.054.172.01.288.027.441.091v.891c-.162-.062-.369-.107-.558-.107-.495,0-.9.278-1.126.747v2.971h-1.017v-4.511Z"/>
      </g>
      <g>
        <path class="uuid-3cdc59fc-3fc1-41cc-960f-8f9063d5d5d4" d="m718.091,138.531v19c0,.35-.28.63-.62.63h-25.717c-.35,0-.63-.28-.63-.63v-18.876l.347-.744.656.016h12.4l.9-2.976h7.194c.3,0,.55.21.62.5l.52,2.46h3.71c.34,0,.62.28.62.62Z"/>
        <path class="uuid-142de210-e6b2-4b65-bbb4-f78ec041174c" d="m718.091,138.531v19c0,.35-.28.63-.62.63h-26c-.35,0-.63-.28-.63-.63v-19c0-.34.28-.62.63-.62.34,0,.62.28.62.62v18.38h24.75v-17.75h-3.59c-.29,0-.55-.21-.61-.5l-.52-2.46h-6.31l-.52,2.46c-.06.29-.32.5-.61.5h-9.38v14.37c0,.35-.28.63-.62.63-.35,0-.63-.28-.63-.63v-15c0-.34.28-.62.63-.62h9.49l.52-2.46c.07-.29.32-.5.62-.5h7.31c.3,0,.55.21.62.5l.52,2.46h3.71c.34,0,.62.28.62.62Z"/>
      </g>
    </g>
    <g>
      <rect class="uuid-c2625ffa-bbbf-4277-baac-d0f6affd2736" x="746.986" y="125.371" width="56.693" height="56.693"/>
      <g>
        <path class="uuid-ed986677-c8e6-413e-862b-355cf322c66e" d="m768.749,166.786h1.107l1.26,3.277,1.252-3.277h1.062l-1.855,4.511h-.99l-1.836-4.511Z"/>
        <path class="uuid-ed986677-c8e6-413e-862b-355cf322c66e" d="m773.923,170c0-.81.667-1.323,1.729-1.323.423,0,.819.091,1.216.288v-.504c0-.594-.342-.9-1.035-.9-.379,0-.793.108-1.314.352l-.36-.738c.675-.307,1.269-.459,1.872-.459,1.18,0,1.846.594,1.846,1.638v2.944h-1.008v-.468c-.388.378-.819.549-1.342.549-.945,0-1.603-.567-1.603-1.378Zm1.882.657c.404,0,.756-.116,1.062-.378v-.729c-.324-.153-.648-.217-1.035-.217-.586,0-.955.243-.955.648,0,.414.36.675.928.675Z"/>
        <path class="uuid-ed986677-c8e6-413e-862b-355cf322c66e" d="m779.108,166.786h1.017v.973c.252-.685.685-1.054,1.242-1.054.171.01.288.027.441.091v.891c-.162-.062-.369-.107-.558-.107-.496,0-.9.278-1.126.747v2.971h-1.017v-4.511Z"/>
      </g>
      <g>
        <path class="uuid-3cdc59fc-3fc1-41cc-960f-8f9063d5d5d4" d="m788.957,138.531v19c0,.35-.28.63-.62.63h-25.717c-.35,0-.63-.28-.63-.63v-18.876l.347-.744.656.016h12.4l.9-2.976h7.194c.3,0,.55.21.62.5l.52,2.46h3.71c.34,0,.62.28.62.62Z"/>
        <path class="uuid-142de210-e6b2-4b65-bbb4-f78ec041174c" d="m788.957,138.531v19c0,.35-.28.63-.62.63h-26c-.35,0-.63-.28-.63-.63v-19c0-.34.28-.62.63-.62.34,0,.62.28.62.62v18.38h24.75v-17.75h-3.59c-.29,0-.55-.21-.61-.5l-.52-2.46h-6.31l-.52,2.46c-.06.29-.32.5-.61.5h-9.38v14.37c0,.35-.28.63-.62.63-.35,0-.63-.28-.63-.63v-15c0-.34.28-.62.63-.62h9.49l.52-2.46c.07-.29.32-.5.62-.5h7.31c.3,0,.55.21.62.5l.52,2.46h3.71c.34,0,.62.28.62.62Z"/>
      </g>
    </g>
  </g>
  <g id="uuid-d61d56ad-9f48-42ac-984f-054e9d2b0551" data-name="Layer 2">
    <g>
      <rect class="uuid-c2625ffa-bbbf-4277-baac-d0f6affd2736" x="392.655" y="25.898" width="56.693" height="56.693"/>
      <g>
        <path class="uuid-3cdc59fc-3fc1-41cc-960f-8f9063d5d5d4" d="m434.627,45.577v19c0,.35-.28.63-.62.63h-25.717c-.35,0-.63-.28-.63-.63v-18.876l.347-.744.656.016h12.4l.9-2.976h7.194c.3,0,.55.21.62.5l.52,2.46h3.71c.34,0,.62.28.62.62Z"/>
        <path class="uuid-142de210-e6b2-4b65-bbb4-f78ec041174c" d="m434.627,45.577v19c0,.35-.28.63-.62.63h-26c-.35,0-.63-.28-.63-.63v-19c0-.34.28-.62.63-.62.34,0,.62.28.62.62v18.38h24.75v-17.75h-3.59c-.29,0-.55-.21-.61-.5l-.52-2.46h-6.31l-.52,2.46c-.06.29-.32.5-.61.5h-9.38v14.37c0,.35-.28.63-.62.63-.35,0-.63-.28-.63-.63v-15c0-.34.28-.62.63-.62h9.49l.52-2.46c.07-.29.32-.5.62-.5h7.31c.3,0,.55.21.62.5l.52,2.46h3.71c.34,0,.62.28.62.62Z"/>
      </g>
    </g>
    <path class="uuid-ed986677-c8e6-413e-862b-355cf322c66e" d="m421.859,68.554h.99l-3.609,8.184h-.981l3.601-8.184Z"/>
  </g>
</svg>